<svg xmlns="http://www.w3.org/2000/svg" xmlns:xlink="http://www.w3.org/1999/xlink"><symbol id="cart" viewBox="0 0 512 512"><path d="M509.867 89.6c-2.133-2.133-4.267-4.267-8.533-4.267H96L85.333 29.867c0-4.267-6.4-8.533-10.667-8.533h-64C4.267 21.333 0 25.6 0 32c0 6.4 4.267 10.667 10.667 10.667h55.467l51.2 260.267c6.4 34.133 38.4 59.733 72.533 59.733H435.2c6.4 0 10.667-4.267 10.667-10.667 0-6.4-4.267-10.667-10.667-10.667H192c-17.067 0-34.133-8.533-42.667-23.467L460.8 275.2c4.267 0 8.533-4.267 8.533-8.533L512 96C512 96 512 91.733 509.867 89.6zM450.133 256l-311.467 40.533-38.4-192H486.4L450.133 256zM181.333 384C151.467 384 128 407.467 128 437.333c0 29.867 23.467 53.333 53.333 53.333 29.867 0 53.333-23.467 53.333-53.333C234.667 407.467 211.2 384 181.333 384zM181.333 469.333c-17.067 0-32-14.934-32-32s14.933-32 32-32c17.067 0 32 14.934 32 32S198.4 469.333 181.333 469.333zM394.667 384c-29.867 0-53.333 23.467-53.333 53.333 0 29.867 23.467 53.333 53.333 53.333 29.867 0 53.333-23.467 53.333-53.333C448 407.467 424.533 384 394.667 384zM394.667 469.333c-17.067 0-32-14.934-32-32s14.933-32 32-32c17.067 0 32 14.934 32 32S411.733 469.333 394.667 469.333z"/></symbol><symbol id="map-mark" viewBox="0 0 512 512"><path d="M256,0C153.755,0,70.573,83.182,70.573,185.426c0,126.888,165.939,313.167,173.004,321.035 c6.636,7.391,18.222,7.378,24.846,0c7.065-7.868,173.004-194.147,173.004-321.035C441.425,83.182,358.244,0,256,0z M256,278.719 c-51.442,0-93.292-41.851-93.292-93.293S204.559,92.134,256,92.134s93.291,41.851,93.291,93.293S307.441,278.719,256,278.719z"/></symbol><symbol id="search" viewBox="0 0 512 512"><path d="M508.875,493.792L353.089,338.005c32.358-35.927,52.245-83.296,52.245-135.339C405.333,90.917,314.417,0,202.667,0 S0,90.917,0,202.667s90.917,202.667,202.667,202.667c52.043,0,99.411-19.887,135.339-52.245l155.786,155.786 c2.083,2.083,4.813,3.125,7.542,3.125c2.729,0,5.458-1.042,7.542-3.125C513.042,504.708,513.042,497.958,508.875,493.792z M202.667,384c-99.979,0-181.333-81.344-181.333-181.333S102.688,21.333,202.667,21.333S384,102.677,384,202.667 S302.646,384,202.667,384z"/></symbol></svg>